<?xml version="1.0" standalone="no"?>
<!DOCTYPE svg PUBLIC "-//W3C//DTD SVG 1.1//EN" "http://www.w3.org/Graphics/SVG/1.1/DTD/svg11.dtd" >
<svg xmlns="http://www.w3.org/2000/svg">
<metadata>Generated by IcoMoon</metadata>
<defs>
<font id="icons" horiz-adv-x="1024">
<font-face units-per-em="1024" ascent="960" descent="-64" />
<missing-glyph horiz-adv-x="1024" />
<glyph unicode="&#x20;" horiz-adv-x="512" d="" />
<glyph unicode="&#xe900;" glyph-name="armchair-1" d="M777.183 420.749h-530.367c-25.474 0.030-46.118 20.673-46.146 46.147v333.046c0.030 25.474 20.671 46.118 46.146 46.146h530.367c25.473-0.029 46.118-20.671 46.146-46.146v-333.046c-0.028-25.474-20.67-46.119-46.146-46.147zM246.816 822.088c-12.226-0.014-22.132-9.922-22.146-22.146v-333.046c0.014-12.227 9.923-22.133 22.146-22.146h530.367c12.226 0.013 22.132 9.922 22.145 22.146v333.046c-0.013 12.226-9.922 22.132-22.145 22.146h-530.367zM777.183 121.417h-530.367c-25.474 0.030-46.118 20.673-46.146 46.147v231.038c0.030 25.474 20.671 46.119 46.146 46.147h530.367c25.473-0.030 46.118-20.673 46.146-46.147v-231.038c-0.028-25.474-20.67-46.117-46.146-46.147zM246.816 420.749c-12.226-0.014-22.132-9.922-22.146-22.146v-231.039c0.014-12.226 9.923-22.132 22.146-22.145h530.367c12.226 0.013 22.132 9.922 22.145 22.145v231.037c-0.013 12.227-9.922 22.133-22.145 22.146l-530.367 0.002zM977.854 121.418h-132.377c-25.474 0.030-46.118 20.673-46.146 46.146v404.913c0.029 25.474 20.671 46.119 46.146 46.147h132.377c25.473-0.030 46.118-20.673 46.146-46.147v-404.911c-0.030-25.475-20.673-46.118-46.146-46.148zM845.476 594.622c-12.226-0.014-22.132-9.922-22.146-22.146v-404.911c0.014-12.226 9.923-22.132 22.146-22.146h132.377c12.226 0.014 22.132 9.923 22.146 22.146v404.911c-0.014 12.226-9.923 22.132-22.146 22.146h-132.377zM178.524 121.418h-132.377c-25.476 0.030-46.118 20.673-46.148 46.148v404.911c0.029 25.474 20.672 46.119 46.146 46.147h132.376c25.474-0.030 46.118-20.673 46.146-46.147v-404.911c-0.028-25.475-20.669-46.118-46.143-46.148zM46.146 594.622c-12.226-0.014-22.132-9.922-22.146-22.146v-404.911c0.014-12.226 9.922-22.132 22.146-22.146h132.376c12.226 0.014 22.132 9.923 22.146 22.146v404.911c-0.014 12.226-9.922 22.132-22.146 22.146h-132.376zM811.33 271.082h-598.66c-6.627 0-11.999 5.373-11.999 11.999s5.372 12.001 11.999 12.001h598.66c6.626 0 12.001-5.373 12.001-12.001s-5.373-11.999-12.001-11.999zM112.334 49.911c-19.88-0.024-37.213 13.518-42 32.813l-11.918 47.793c-1.605 6.429 2.307 12.941 8.735 14.547 0.951 0.237 1.927 0.357 2.906 0.356h84.553c6.626 0 11.998-5.371 11.998-11.998 0-0.979-0.119-1.956-0.355-2.905l-11.92-47.793c-4.786-19.297-22.119-32.837-41.999-32.813zM85.417 121.418l8.202-32.887c2.577-10.335 13.046-16.625 23.38-14.047 6.919 1.726 12.322 7.128 14.047 14.047l8.203 32.887h-53.833zM911.665 49.91c-19.881-0.024-37.215 13.518-42.001 32.813l-11.917 47.791c-1.606 6.43 2.307 12.942 8.735 14.547 0.951 0.238 1.927 0.358 2.906 0.356h84.553c6.626 0 11.999-5.371 11.999-11.997 0-0.979-0.119-1.957-0.356-2.906l-11.917-47.791c-4.786-19.295-22.12-32.837-42-32.813zM884.749 121.418l8.2-32.886c2.577-10.335 13.046-16.627 23.381-14.049 6.921 1.726 12.323 7.128 14.049 14.049l8.2 32.887-53.831-0.001z" />
<glyph unicode="&#xe901;" glyph-name="Arrow-Left" d="M228.765 459.132c0 17.953 6.681 35.905 20.015 49.592l419.794 430.726c26.704 27.4 70 27.4 96.694 0 26.693-27.389 26.693-71.804 0-99.206l-371.457-381.112 371.443-381.111c26.694-27.401 26.694-71.817 0-99.2-26.693-27.409-69.989-27.409-96.693 0l-419.794 430.72c-13.336 13.694-20.002 31.645-20.002 49.591z" />
<glyph unicode="&#xe902;" glyph-name="Arrow-Right" d="M758.014 459.139c0-17.953-6.539-35.904-19.589-49.591l-410.862-430.727c-26.136-27.401-68.51-27.401-94.636 0-26.125 27.392-26.125 71.808 0 99.209l363.554 381.11-363.541 381.114c-26.125 27.401-26.125 71.811 0 99.198 26.125 27.413 68.5 27.413 94.636 0l410.862-430.719c13.053-13.694 19.576-31.646 19.576-49.592z" />
<glyph unicode="&#xe903;" glyph-name="bedroom-1" d="M867.175 614.297h-710.351c-6.626 0-11.999 5.373-11.999 11.999v249.253c0 6.627 5.373 11.999 11.999 11.999h710.351c6.627 0 12.001-5.373 12.001-11.999v-249.253c-0.002-6.626-5.374-11.999-12.001-11.999zM168.824 638.296h686.351v225.253h-686.351v-225.253zM812.1 614.297h-600.203c-6.626 0-11.999 5.373-11.999 11.999v194.18c0 6.626 5.373 11.999 11.999 11.999h600.203c6.627 0 12.001-5.373 12.001-11.999v-194.178c0-6.628-5.373-12.001-12.001-12.001zM223.898 638.297h576.204v170.178h-576.204v-170.178zM475.808 614.298h-227.719c-26.602 0.030-48.161 21.589-48.191 48.19v121.798c0.030 26.604 21.589 48.161 48.191 48.191h227.719c26.604-0.029 48.162-21.588 48.193-48.191v-121.798c-0.031-26.604-21.589-48.161-48.193-48.19zM248.089 808.476c-13.353-0.015-24.176-10.837-24.192-24.192v-121.798c0.016-13.353 10.837-24.176 24.192-24.19h227.719c13.354 0.014 24.177 10.837 24.192 24.19v121.798c-0.015 13.354-10.836 24.177-24.192 24.192h-227.719zM775.908 614.298h-227.719c-26.604 0.030-48.161 21.589-48.193 48.19v121.798c0.030 26.604 21.589 48.161 48.193 48.191h227.719c26.604-0.029 48.161-21.588 48.191-48.191v-121.798c-0.031-26.604-21.588-48.161-48.191-48.19zM548.189 808.476c-13.354-0.015-24.177-10.837-24.192-24.192v-121.798c0.015-13.353 10.837-24.176 24.192-24.19h227.719c13.353 0.014 24.177 10.837 24.192 24.19v121.798c-0.015 13.354-10.837 24.177-24.192 24.192h-227.719zM875.859 8.45h-727.72c-26.601 0.031-48.159 21.587-48.19 48.19v533.467c0.031 26.601 21.589 48.159 48.19 48.189h727.72c26.602-0.029 48.161-21.587 48.191-48.189v-533.467c-0.031-26.601-21.589-48.16-48.191-48.19zM148.139 614.298c-13.353-0.014-24.177-10.837-24.192-24.19v-533.467c0.015-13.354 10.837-24.175 24.192-24.191h727.72c13.353 0.016 24.175 10.837 24.19 24.191v533.467c-0.015 13.353-10.837 24.176-24.19 24.19h-727.72zM880.478 863.55h-736.957c-24.054 0.028-43.544 19.52-43.572 43.572v9.306c0.028 24.052 19.518 43.544 43.572 43.572h736.957c24.054-0.028 43.545-19.52 43.572-43.572v-9.306c-0.028-24.054-19.519-43.544-43.572-43.572zM143.521 936c-10.804-0.012-19.559-8.768-19.572-19.572v-9.306c0.012-10.804 8.767-19.56 19.572-19.572h736.957c10.804 0.012 19.56 8.768 19.573 19.572v9.306c-0.012 10.804-8.769 19.56-19.573 19.572h-736.957zM880.478-64h-736.957c-24.054 0.028-43.544 19.521-43.572 43.572v9.306c0.028 24.054 19.52 43.544 43.572 43.571h736.957c24.054-0.028 43.545-19.519 43.572-43.571v-9.306c-0.028-24.052-19.519-43.545-43.572-43.572zM143.521 8.45c-10.804-0.012-19.559-8.769-19.572-19.572v-9.306c0.012-10.804 8.767-19.559 19.572-19.572h736.957c10.804 0.012 19.56 8.767 19.573 19.572v9.306c-0.012 10.803-8.769 19.559-19.573 19.572h-736.957z" />
<glyph unicode="&#xe904;" glyph-name="calendar" d="M213.333 757.333c-29.455 0-53.333-23.878-53.333-53.333v-597.333c0-29.457 23.878-53.333 53.333-53.333h597.333c29.457 0 53.333 23.876 53.333 53.333v597.333c0 29.455-23.876 53.333-53.333 53.333h-597.333zM96 704c0 64.801 52.532 117.333 117.333 117.333h597.333c64.802 0 117.333-52.532 117.333-117.333v-597.333c0-64.802-52.531-117.333-117.333-117.333h-597.333c-64.801 0-117.333 52.531-117.333 117.333v597.333zM682.667 906.667c17.673 0 32-14.327 32-32v-170.667c0-17.673-14.327-32-32-32s-32 14.327-32 32v170.667c0 17.673 14.327 32 32 32zM341.333 906.667c17.673 0 32-14.327 32-32v-170.667c0-17.673-14.327-32-32-32s-32 14.327-32 32v170.667c0 17.673 14.327 32 32 32zM96 533.333c0 17.673 14.327 32 32 32h768c17.673 0 32-14.327 32-32s-14.327-32-32-32h-768c-17.673 0-32 14.327-32 32z" />
<glyph unicode="&#xe905;" glyph-name="chevron-right" d="M790.626 598.627c12.497-12.497 12.497-32.758 0-45.255l-256-255.999c-12.497-12.497-32.755-12.497-45.252 0l-256.001 255.999c-12.497 12.497-12.497 32.758 0 45.255s32.758 12.497 45.255 0l233.373-233.371 233.374 233.371c12.497 12.497 32.755 12.497 45.252 0z" />
<glyph unicode="&#xe906;" glyph-name="Facebook" d="M565.366 146.954v278.556h76.895l10.189 95.992h-87.084l0.131 48.044c0 25.037 2.381 38.451 38.339 38.451h48.072v96.003h-76.905c-92.375 0-124.887-46.566-124.887-124.877v-57.633h-57.582v-95.99h57.582v-278.546h115.251z" />
<glyph unicode="&#xe907;" glyph-name="Instagram" d="M399.429 719.417c29.128 1.326 38.436 1.65 112.596 1.65h-0.084c74.184 0 83.456-0.324 112.584-1.65 29.071-1.331 48.924-5.934 66.332-12.686 17.979-6.968 33.167-16.299 48.356-31.487 15.191-15.178 24.52-30.413 31.519-48.374 6.712-17.362 11.32-37.207 12.685-66.276 1.308-29.128 1.651-38.436 1.651-112.596s-0.343-83.446-1.651-112.573c-1.364-29.059-5.972-48.906-12.685-66.276-6.999-17.953-16.328-33.188-31.519-48.366-15.171-15.191-30.385-24.543-48.338-31.519-17.375-6.751-37.24-11.354-66.309-12.685-29.128-1.326-38.408-1.651-112.573-1.651-74.156 0-83.459 0.325-112.584 1.651-29.066 1.331-48.914 5.934-66.289 12.685-17.948 6.976-33.183 16.328-48.356 31.519-15.183 15.178-24.515 30.413-31.494 48.371-6.747 17.364-11.35 37.207-12.686 66.278-1.32 29.125-1.65 38.405-1.65 112.566s0.342 83.474 1.644 112.602c1.308 29.059 5.916 48.909 12.686 66.276 6.998 17.956 16.327 33.19 31.518 48.369 15.176 15.183 30.413 24.512 48.371 31.487 17.364 6.753 37.207 11.355 66.276 12.686zM502.925 671.859c-5.522 0.003-10.637 0.005-15.393-0.003v0.069c-50.895-0.056-60.657-0.399-85.847-1.536-26.624-1.224-41.080-5.66-50.706-9.416-12.744-4.961-21.844-10.877-31.404-20.434-9.556-9.559-15.485-18.66-20.434-31.404-3.738-9.626-8.187-24.077-9.403-50.701-1.311-28.785-1.572-37.386-1.572-110.308s0.261-81.569 1.572-110.354c1.211-26.624 5.665-41.075 9.403-50.688 4.961-12.749 10.877-21.829 20.434-31.386 9.559-9.559 18.66-15.475 31.404-20.424 9.631-3.738 24.082-8.187 50.706-9.416 28.785-1.308 37.427-1.592 110.344-1.592 72.909 0 81.556 0.284 110.341 1.592 26.624 1.216 41.085 5.655 50.701 9.408 12.749 4.951 21.821 10.867 31.38 20.424 9.556 9.551 15.485 18.627 20.434 31.37 3.738 9.613 8.187 24.064 9.403 50.688 1.311 28.787 1.595 37.432 1.595 110.308s-0.284 81.523-1.595 110.31c-1.211 26.624-5.665 41.073-9.403 50.688-4.961 12.744-10.877 21.844-20.434 31.404-9.551 9.556-18.637 15.473-31.38 20.424-9.626 3.738-24.077 8.184-50.701 9.403-28.792 1.308-37.432 1.569-110.341 1.569l-9.103 0.003zM371.794 448.003c0 77.443 62.789 140.232 140.232 140.232h-0.005c77.445 0 140.216-62.789 140.216-140.232 0-77.445-62.766-140.206-140.211-140.206-77.443 0-140.232 62.761-140.232 140.206zM603.049 447.995c0 50.273-40.755 91.023-91.023 91.023-50.273 0-91.023-40.75-91.023-91.023 0-50.268 40.75-91.023 91.023-91.023 50.268 0 91.023 40.755 91.023 91.023zM625.024 593.756c0 18.097 14.676 32.758 32.768 32.758v0.013c18.092 0 32.768-14.679 32.768-32.771 0-18.089-14.676-32.768-32.768-32.768s-32.768 14.679-32.768 32.768z" />
<glyph unicode="&#xe908;" glyph-name="kitchen-1" d="M694.147 26.824h-364.296c-6.627 0-11.999 5.373-11.999 12.001v278.987c0 6.626 5.372 12.001 11.999 12.001h364.296c6.627 0 12.001-5.373 12.001-12.001v-278.987c-0.002-6.628-5.374-12.001-12.001-12.001zM341.851 50.824h340.298v254.986h-340.298v-254.986zM694.147-24.522h-364.296c-6.627 0-11.999 5.373-11.999 12.001v51.347c0 6.626 5.372 12 11.999 12h364.296c6.627 0 12.001-5.372 12.001-12v-51.347c-0.002-6.628-5.374-12.001-12.001-12.001zM341.851-0.521h340.298v27.347h-340.298v-27.347zM694.147 305.811h-364.296c-6.627 0-11.999 5.373-11.999 11.999v118.286c0 6.626 5.372 12 11.999 12h364.296c6.627 0 12.001-5.372 12.001-12v-118.286c-0.002-6.626-5.374-11.999-12.001-11.999zM341.851 329.811h340.298v94.287h-340.298v-94.287zM511.998 338.067c-21.477 0-38.889 17.412-38.889 38.888s17.412 38.889 38.888 38.889c21.477 0 38.889-17.412 38.889-38.888-0.023-21.469-17.42-38.865-38.888-38.889zM511.998 391.845c-8.223 0-14.889-6.666-14.889-14.888s6.666-14.889 14.888-14.889c8.223 0 14.889 6.666 14.889 14.888-0.006 8.22-6.668 14.881-14.888 14.889zM613.036 338.067c-21.478 0-38.889 17.412-38.889 38.888s17.411 38.889 38.887 38.889c21.478 0 38.889-17.412 38.889-38.888-0.023-21.469-17.42-38.865-38.887-38.889zM613.036 391.845c-8.224 0-14.89-6.666-14.89-14.888s6.666-14.889 14.888-14.889c8.224 0 14.89 6.666 14.89 14.888-0.009 8.22-6.668 14.879-14.888 14.889zM410.962 338.065c-21.478 0-38.889 17.412-38.889 38.89s17.411 38.889 38.889 38.889 38.889-17.412 38.889-38.889c-0.024-21.47-17.421-38.866-38.889-38.89zM410.962 391.843c-8.223 0-14.889-6.666-14.889-14.889 0-8.224 6.666-14.89 14.889-14.89s14.89 6.666 14.89 14.89c-0.009 8.22-6.67 14.881-14.89 14.889zM623.704 235.655h-223.407c-15.587 0.006-28.217 12.645-28.211 28.232 0.007 15.578 12.633 28.205 28.211 28.21h223.407c15.586 0.007 28.227-12.623 28.232-28.21 0.007-15.586-12.623-28.227-28.21-28.232-0.008 0-0.015 0-0.022 0zM400.297 268.1c-2.333-0.002-4.221-1.894-4.219-4.226 0.001-2.33 1.888-4.217 4.219-4.219h223.407c2.332-0.002 4.224 1.887 4.225 4.219s-1.887 4.224-4.219 4.226c-0.001 0-0.005 0-0.006 0h-223.407zM613.036 65.137h-202.074c-6.627 0-11.999 5.373-11.999 12.001v170.519c0 6.626 5.372 12.001 11.999 12.001h202.074c6.626 0 11.999-5.373 11.999-12.001v-170.519c0.002-6.628-5.371-12.001-11.999-12.001zM422.962 89.137h178.075v146.519h-178.075v-146.519zM432.038 424.099c-6.626 0-11.999 5.372-11.999 12v29.778c0 6.626 5.373 12 11.999 12s12.001-5.372 12.001-12v-29.778c0-6.628-5.373-12-12.001-12zM488.926 424.098c-6.626 0-11.999 5.372-11.999 12v17.78h-16c-6.626 0-12 5.373-12 12.001s5.372 12.001 12 12.001h27.999c6.626 0 12.001-5.373 12.001-12.001v-29.781c-0.002-6.628-5.375-12-12.001-12zM375.149 424.098c-6.626 0-12.001 5.372-12.001 12v29.781c0 6.626 5.373 12.001 12.001 12.001h27.999c6.626 0 11.999-5.373 11.999-12.001s-5.373-12.001-11.999-12.001h-16v-17.78c0.001-6.628-5.371-12-11.999-12zM591.962 424.099c-6.626 0-12.001 5.372-12.001 12v29.778c0 6.626 5.373 12 12.001 12s11.999-5.372 11.999-12v-29.778c0-6.628-5.373-12-11.999-12zM535.075 424.098c-6.626 0-12.001 5.372-12.001 12v29.781c0 6.626 5.373 12.001 12.001 12.001h27.999c6.626 0 12-5.373 12-12.001s-5.372-12.001-12-12.001h-16v-17.78c0.001-6.628-5.371-12-11.999-12zM648.852 424.098c-6.627 0-11.999 5.372-11.999 12v17.78h-16c-6.627 0-11.999 5.373-11.999 12.001s5.372 12.001 11.999 12.001h27.999c6.626 0 12-5.373 12-12.001v-29.781c-0.002-6.628-5.374-12-12-12zM752.148 380.394h-21.481c-6.627 0-11.999 5.373-11.999 11.999s5.372 12.001 11.999 12.001h21.482c6.627 0 11.999-5.373 11.999-12.001s-5.372-11.999-12-11.999zM788.667-24.523h-94.518c-6.626 0-11.999 5.373-11.999 12.001v448.62c0 6.627 5.373 11.999 11.999 11.999h94.518c6.626 0 12-5.372 12-11.999v-448.62c-0.001-6.628-5.374-12.001-12-12.001zM706.148-0.522h70.518v424.62h-70.518v-424.62zM1011.999 199.788h-223.332c-6.626 0-11.999 5.373-11.999 11.999v224.31c0 6.626 5.373 12 11.999 12h223.334c6.627 0 11.999-5.372 11.999-12v-224.31c0-6.626-5.373-11.999-12.001-11.999zM800.666 223.787h199.335v200.311h-199.335v-200.311zM929.111 380.394h-57.557c-6.626 0-11.999 5.373-11.999 11.999s5.373 12.001 11.999 12.001h57.557c6.626 0 12.001-5.373 12.001-12.001s-5.375-11.999-12.001-11.999zM199.705 380.394h-57.557c-6.626 0-11.999 5.373-11.999 11.999s5.373 12.001 11.999 12.001h57.555c6.627 0 11.999-5.373 11.999-12.001s-5.371-11.999-11.997-11.999zM1011.999-24.523h-223.332c-6.626 0-11.999 5.373-11.999 12.001v224.308c0 6.626 5.373 12 11.999 12h223.334c6.627 0 11.999-5.372 11.999-12v-224.308c0-6.628-5.373-12.001-12.001-12.001zM800.666-0.522h199.335v200.31h-199.335v-200.31zM929.111 156.087h-57.557c-6.626 0-11.999 5.373-11.999 12.001 0 6.626 5.373 11.999 11.999 11.999h57.557c6.626 0 12.001-5.373 12.001-11.999-0.002-6.628-5.375-12.001-12.001-12.001zM170.925-24.523h-158.926c-6.627 0-11.999 5.372-11.999 12v330.334c0 6.626 5.373 12.001 11.999 12.001h158.926c6.627 0 11.999-5.373 11.999-12.001v-330.334c0.002-6.628-5.371-12-11.999-12zM24-0.523h134.926v306.334h-134.926v-306.334zM329.852-24.523h-158.927c-6.626 0-11.999 5.372-11.999 12v330.334c0 6.626 5.373 12.001 11.999 12.001h158.927c6.626 0 11.999-5.373 11.999-12.001v-330.334c0.001-6.628-5.371-12-11.999-12zM182.926-0.523h134.926v306.334h-134.926v-306.334zM208.87 120.67c-6.626 0-11.999 5.373-11.999 11.999v39.946c0 6.626 5.373 11.999 11.999 11.999s11.999-5.373 11.999-11.999v-39.948c0-6.624-5.373-11.997-11.999-11.997zM132.982 120.67c-6.626 0-11.999 5.373-11.999 11.999v39.946c0 6.626 5.373 11.999 11.999 11.999s11.999-5.373 11.999-11.999v-39.948c0-6.624-5.373-11.997-11.999-11.997zM329.851 305.811h-317.852c-6.627 0-11.999 5.373-11.999 11.999v118.286c0 6.626 5.373 12 11.999 12h317.852c6.627 0 11.999-5.372 11.999-12v-118.286c0.002-6.626-5.371-11.999-11.999-11.999zM24 329.811h293.853v94.287h-293.853v-94.287zM680.619 675.562h-337.24c-14.092 0.016-25.512 11.436-25.527 25.528v34.461c0.015 14.092 11.435 25.511 25.527 25.526h337.242c14.092-0.015 25.512-11.436 25.527-25.527v-34.462c-0.015-14.090-11.437-25.51-25.529-25.526zM343.379 737.079c-0.843-0.002-1.526-0.685-1.528-1.528v-34.461c0.002-0.843 0.685-1.526 1.528-1.528h337.242c0.843 0.002 1.526 0.685 1.528 1.528v34.461c-0.002 0.843-0.685 1.526-1.528 1.528h-337.242zM655.607 737.079h-287.214c-13.964 0-25.286 11.319-25.287 25.284 0 7.778 3.579 15.123 9.705 19.916l9.221 7.215c36.722 28.552 58.143 72.509 58.003 119.025 0 6.627 5.372 11.999 11.998 11.999h159.926c6.626 0 11.999-5.373 11.999-11.999-0.14-46.516 21.281-90.472 58.004-119.025l9.22-7.215c10.999-8.604 12.941-24.494 4.338-35.492-4.789-6.129-12.137-9.71-19.916-9.708zM443.635 896.519c-3.253-49.595-27.572-95.428-66.813-125.928l-9.222-7.214c-0.559-0.438-0.657-1.245-0.22-1.804 0.244-0.311 0.617-0.493 1.012-0.493h287.216c0.71 0 1.285 0.575 1.285 1.285 0 0.394-0.181 0.768-0.492 1.010h-0.001l-9.22 7.215c-39.242 30.5-63.559 76.333-66.813 125.928l-136.732 0.002zM974.851 675.562h-190.963c-16.608 0-30.075 13.465-30.075 30.075 0 16.611 13.465 30.075 30.075 30.075h190.963c16.609 0 30.075-13.464 30.075-30.075 0-16.61-13.466-30.075-30.075-30.075zM783.888 711.711c-3.354 0-6.074-2.719-6.074-6.074s2.719-6.075 6.074-6.075h190.963c3.354 0 6.074 2.719 6.074 6.075 0 3.354-2.719 6.074-6.074 6.074h-190.963zM240.111 675.562h-190.962c-16.609 0-30.075 13.465-30.075 30.075 0 16.611 13.464 30.075 30.075 30.075h190.962c16.609 0 30.075-13.464 30.075-30.075 0-16.61-13.464-30.075-30.075-30.075zM49.149 711.711c-3.354 0-6.075-2.719-6.075-6.074s2.719-6.075 6.075-6.075h190.962c3.355 0 6.075 2.719 6.075 6.075 0 3.354-2.72 6.074-6.075 6.074h-190.962zM220.953 711.711h-48.815c-6.626 0-11.999 5.373-11.999 11.999v41.256c0 6.626 5.373 11.999 11.999 11.999h48.815c6.626 0 11.999-5.373 11.999-11.999v-41.256c0.002-6.626-5.371-11.999-11.999-11.999zM184.139 735.711h24.815v17.255h-24.815v-17.255zM232.453 752.967h-71.815c-6.626 0-11.999 5.373-11.999 11.999s5.373 11.999 11.999 11.999h71.815c6.626 0 11.999-5.373 11.999-11.999s-5.373-11.999-11.999-11.999zM117.12 711.711h-48.815c-6.627 0-11.999 5.373-11.999 11.999v41.256c0 6.626 5.373 11.999 11.999 11.999h48.815c6.626 0 11.999-5.373 11.999-11.999v-41.256c0-6.626-5.373-11.999-11.999-11.999zM80.305 735.711h24.815v17.255h-24.813l-0.002-17.255zM128.62 752.967h-71.813c-6.627 0-11.999 5.373-11.999 11.999s5.373 11.999 11.999 11.999h71.815c6.626 0 11.999-5.373 11.999-11.999s-5.373-11.999-12.001-11.999zM220.953 752.968h-48.815c-6.626 0-11.999 5.373-11.999 11.999v41.254c0 6.626 5.373 11.999 11.999 11.999h48.815c6.626 0 11.999-5.373 11.999-11.999v-41.254c0.002-6.626-5.371-11.999-11.999-11.999zM184.139 776.967h24.815v17.254h-24.815v-17.254zM232.453 794.222h-71.815c-6.626 0-11.999 5.373-11.999 11.999s5.373 11.999 11.999 11.999h71.815c6.626 0 11.999-5.373 11.999-11.999s-5.373-11.999-11.999-11.999zM117.12 752.968h-48.815c-6.627 0-11.999 5.373-11.999 11.999v41.254c0 6.626 5.373 11.999 11.999 11.999h48.815c6.626 0 11.999-5.373 11.999-11.999v-41.254c0-6.626-5.373-11.999-11.999-11.999zM80.305 776.967h24.815v17.254h-24.813l-0.002-17.254zM128.62 794.222h-71.813c-6.627 0-11.999 5.373-11.999 11.999s5.373 11.999 11.999 11.999h71.815c6.626 0 11.999-5.373 11.999-11.999s-5.373-11.999-12.001-11.999zM879.37 711.711c-42.778 0.007-77.452 34.692-77.445 77.47 0.002 14.569 4.113 28.845 11.862 41.183 2.198 3.489 6.032 5.606 10.156 5.606h110.853c4.122 0 7.954-2.116 10.152-5.604 22.752-36.224 11.831-84.036-24.393-106.789-12.338-7.751-26.614-11.862-41.185-11.866zM831.024 811.97c-12.579-26.702-1.129-58.544 25.572-71.123s58.544-1.129 71.123 25.572c6.794 14.423 6.794 31.127 0 45.55l-96.695 0.001zM878.252 811.97c-6.626 0-12.001 5.372-12.001 11.999v77.205c0 6.627 5.373 11.999 12.001 11.999s11.999-5.373 11.999-11.999v-77.205c0-6.627-5.373-11.999-11.999-11.999zM878.253 811.969c-6.626 0-11.999 5.375-11.999 12.001 0 3.183 1.265 6.234 3.514 8.485l41.524 41.524c4.733 4.639 12.331 4.561 16.971-0.171 4.573-4.667 4.573-12.134-0.002-16.799l-41.524-41.524c-2.249-2.254-5.301-3.521-8.484-3.515zM878.253 811.971c-3.183-0.004-6.237 1.261-8.485 3.514l-41.524 41.524c-4.736 4.635-4.817 12.234-0.179 16.97 4.636 4.736 12.234 4.817 16.97 0.18 0.061-0.059 0.12-0.119 0.18-0.18l41.524-41.524c4.686-4.686 4.686-12.285 0-16.971-2.252-2.251-5.305-3.514-8.486-3.514zM623.178 453.877h-58.523c-33.183 0.038-60.073 26.928-60.111 60.112v28.208c0 6.626 5.372 12 12 12h154.744c6.626 0 12.001-5.372 12.001-12v-28.208c-0.039-33.184-26.929-60.074-60.112-60.112zM528.546 530.195v-16.209c0.023-19.935 16.176-36.089 36.111-36.111h58.522c19.935 0.023 36.090 16.176 36.112 36.111v16.209h-130.745zM694.148 509.047h-22.86c-6.626 0-12.001 5.373-12.001 11.999s5.373 11.999 12.001 11.999h22.86c6.627 0 12.001-5.373 12.001-11.999s-5.374-11.999-12.001-11.999zM512.638 509.047h-22.86c-6.627 0-11.999 5.373-11.999 11.999s5.372 11.999 11.999 11.999h22.86c6.626 0 12.001-5.373 12.001-11.999s-5.373-11.999-12.001-11.999zM671.288 530.196h-154.744c-6.626 0-12 5.373-12 11.999 0 2.427 0.734 4.796 2.109 6.798 16.79 24.429 50.225 39.603 87.262 39.603s70.471-15.175 87.261-39.603c3.753-5.461 2.37-12.934-3.091-16.687-1.999-1.373-4.369-2.11-6.797-2.11zM548.768 554.197h90.297c-28.503 13.87-61.796 13.87-90.297 0zM579.263 563.686c-2.939-0.003-5.777 1.076-7.971 3.034-14.077 12.497-15.357 34.041-2.859 48.119s34.041 15.357 48.119 2.86c14.077-12.498 15.357-34.042 2.86-48.12-0.895-1.009-1.849-1.961-2.858-2.857-4.922-4.437-12.511-4.043-16.948 0.88s-4.042 12.511 0.881 16.948c0.038 0.035 0.077 0.070 0.115 0.102 4.175 3.689 4.568 10.063 0.88 14.237s-10.063 4.569-14.237 0.881c-4.174-3.689-4.568-10.064-0.881-14.238 0.275-0.311 0.567-0.603 0.879-0.879 4.952-4.403 5.396-11.988 0.993-16.941-2.28-2.563-5.544-4.026-8.972-4.026zM142.366 424.097h-50.687c-6.627 0-11.999 5.372-11.999 12v128.891c0 6.627 5.373 11.999 11.999 11.999h50.687c6.626 0 11.999-5.372 11.999-11.999v-128.891c0.001-6.628-5.371-12-11.999-12zM103.68 448.096h26.686v104.891h-26.686v-104.891zM91.679 424.097h-50.685c-6.627 0-11.999 5.372-11.999 12v128.891c0 6.627 5.373 11.999 11.999 11.999h50.685c6.627 0 11.999-5.372 11.999-11.999v-128.891c0.002-6.628-5.371-12-11.999-12zM52.993 448.096h26.685v104.891h-26.683l-0.002-104.891zM253.69 424.098h-22.63c-22.899 0.026-41.453 18.583-41.481 41.48v42.076c0 6.626 5.373 12.001 11.999 12.001h81.592c6.626 0 11.999-5.373 11.999-12.001v-42.076c-0.025-22.898-18.582-41.455-41.479-41.48zM213.581 495.655v-30.077c0.010-9.65 7.831-17.468 17.481-17.481h22.628c9.65 0.011 17.47 7.831 17.481 17.481v30.075l-57.59 0.002zM290.188 495.657h-95.628c-12.512 0.013-22.652 10.153-22.666 22.666v12.446c0.014 12.512 10.155 22.652 22.666 22.666h95.628c12.513-0.014 22.653-10.154 22.666-22.666v-12.446c-0.013-12.513-10.153-22.653-22.666-22.666zM195.894 519.656h92.962v9.778h-92.962v-9.778zM798.409 424.098h-61.781c-6.626 0-11.999 5.372-11.999 12v84.446c0 6.626 5.373 12 11.999 12h61.781c6.626 0 12.001-5.372 12.001-12v-84.446c-0.002-6.628-5.375-12-12.001-12zM748.629 448.097h37.78v60.446h-37.78v-60.446zM798.409 508.544h-61.781c-6.626 0-11.999 5.373-11.999 11.999v36.889c0 6.626 5.373 12 11.999 12h61.781c6.626 0 12.001-5.372 12.001-12v-36.889c-0.002-6.626-5.375-11.999-12.001-11.999zM748.629 532.545h37.78v12.888h-37.78v-12.888zM946.556 464.683c-19.606 0-34.963 18.872-34.963 42.966s15.357 42.968 34.963 42.968c19.604 0 34.962-18.874 34.962-42.968s-15.358-42.966-34.962-42.966zM946.556 526.618c-5.175 0-10.963-8.111-10.963-18.969 0-10.855 5.788-18.967 10.963-18.967s10.963 8.111 10.963 18.967c0 10.856-5.788 18.969-10.963 18.969zM946.554 526.846c-5.594 0-10.448 3.867-11.697 9.32l-18.34 80.010c-3.802 16.59 6.563 33.121 23.153 36.924 16.59 3.804 33.12-6.563 36.924-23.153 1.039-4.531 1.039-9.24 0-13.772l-18.342-80.010c-1.252-5.454-6.104-9.32-11.698-9.32zM946.554 629.878c-3.764 0-6.817-3.052-6.817-6.817 0-0.512 0.056-1.024 0.173-1.524l6.644-28.987 6.646 28.985c0.842 3.669-1.452 7.328-5.12 8.168-0.501 0.117-1.013 0.174-1.526 0.174zM860.24 526.846c-5.594 0-10.448 3.866-11.696 9.317l-18.343 80.011c-3.803 16.59 6.563 33.122 23.153 36.924 16.59 3.803 33.123-6.563 36.924-23.153 1.040-4.532 1.040-9.241 0-13.772l-18.342-80.011c-1.248-5.454-6.102-9.317-11.696-9.317zM860.24 629.877c-3.765 0-6.817-3.050-6.817-6.817 0-0.513 0.057-1.024 0.173-1.526l6.644-28.986 6.644 28.986c0.843 3.671-1.451 7.328-5.12 8.168-0.5 0.118-1.010 0.174-1.524 0.174zM887.815 488.062h-55.15c-5.969 0-11.031 4.388-11.877 10.296-2.073 13.852 1.975 27.92 11.089 38.555 7.753 8.945 18.090 14.075 28.363 14.075s20.613-5.13 28.367-14.075c9.113-10.634 13.158-24.704 11.086-38.555-0.847-5.911-5.908-10.296-11.877-10.296zM845.164 512.061h30.156c-0.911 3.368-2.568 6.488-4.849 9.131-3.052 3.521-7.066 5.795-10.231 5.795-3.166 0-7.179-2.274-10.229-5.795-2.277-2.641-3.936-5.763-4.848-9.131z" />
<glyph unicode="&#xe909;" glyph-name="Left" d="M389.786 452.176c0 6.73 2.506 13.462 7.507 18.595l157.421 161.523c10.016 10.274 26.253 10.274 36.262 0 10.010-10.272 10.010-26.928 0-37.203l-139.296-142.915 139.29-142.918c10.010-10.275 10.010-26.931 0-37.2-10.010-10.278-26.246-10.278-36.259 0l-157.424 161.52c-4.998 5.136-7.501 11.866-7.501 18.598z" />
<glyph unicode="&#xe90a;" glyph-name="living-room-1" d="M477.855 67.286h-306.184c-25.473 0.029-46.118 20.671-46.146 46.146v118.945c0.030 25.474 20.673 46.119 46.146 46.147h306.184c25.473-0.030 46.118-20.673 46.146-46.147v-118.945c-0.030-25.474-20.673-46.118-46.146-46.146zM171.671 254.524c-12.226-0.014-22.134-9.922-22.145-22.146v-118.945c0.013-12.227 9.922-22.134 22.145-22.146h306.184c12.226 0.014 22.132 9.922 22.145 22.146v118.945c-0.013 12.226-9.922 22.132-22.145 22.146h-306.184zM103.378 67.286h-57.232c-25.474 0.028-46.116 20.673-46.146 46.147v227.707c0.029 25.473 20.672 46.118 46.146 46.146h57.23c25.474-0.030 46.118-20.673 46.146-46.146v-227.707c-0.028-25.474-20.67-46.119-46.143-46.147zM46.146 363.284c-12.226-0.013-22.132-9.919-22.146-22.145v-227.707c0.014-12.227 9.922-22.133 22.146-22.146h57.23c12.226 0.013 22.132 9.922 22.146 22.146v227.707c-0.014 12.226-9.921 22.134-22.146 22.145h-57.23zM886.476 160.905h-748.952c-6.626 0-11.999 5.372-11.999 11.999 0 6.626 5.373 12 11.999 12h748.954c6.626 0 11.999-5.372 11.999-12s-5.373-11.999-12.001-11.999zM477.855 254.525h-306.184c-25.473 0.030-46.118 20.671-46.146 46.146v182.753c0.030 25.474 20.673 46.118 46.146 46.146h306.184c25.473-0.030 46.118-20.671 46.146-46.146v-182.753c-0.030-25.474-20.673-46.118-46.146-46.146zM171.671 505.571c-12.226-0.013-22.134-9.919-22.145-22.145v-182.753c0.013-12.226 9.922-22.134 22.145-22.146h306.184c12.226 0.014 22.132 9.922 22.145 22.146v182.751c-0.013 12.226-9.922 22.134-22.145 22.146l-306.184 0.001zM852.329 254.525h-306.184c-25.473 0.030-46.118 20.671-46.146 46.146v182.753c0.030 25.474 20.673 46.118 46.146 46.146h306.184c25.474-0.030 46.118-20.671 46.146-46.146v-182.753c-0.028-25.474-20.67-46.118-46.146-46.146zM546.145 505.571c-12.226-0.013-22.133-9.922-22.145-22.145v-182.753c0.013-12.226 9.922-22.132 22.145-22.146h306.184c12.226 0.014 22.134 9.922 22.146 22.146v182.751c-0.014 12.226-9.923 22.134-22.146 22.146l-306.184 0.001zM852.329 67.286h-306.184c-25.473 0.029-46.118 20.671-46.146 46.146v118.945c0.030 25.474 20.673 46.119 46.146 46.147h306.184c25.474-0.030 46.118-20.673 46.146-46.147v-118.945c-0.028-25.474-20.67-46.118-46.146-46.146zM546.145 254.524c-12.226-0.014-22.132-9.922-22.145-22.146v-118.945c0.013-12.227 9.922-22.132 22.145-22.146h306.184c12.226 0.014 22.134 9.922 22.146 22.146v118.945c-0.014 12.226-9.923 22.134-22.146 22.146h-306.184zM977.853 67.286h-57.229c-25.474 0.030-46.118 20.673-46.146 46.147v227.707c0.029 25.473 20.671 46.118 46.146 46.146h57.229c25.474-0.030 46.119-20.673 46.147-46.146v-227.707c-0.030-25.474-20.673-46.119-46.147-46.147zM920.622 363.284c-12.226-0.013-22.132-9.919-22.146-22.145v-227.707c0.014-12.227 9.923-22.133 22.146-22.146h57.23c12.226 0.013 22.134 9.922 22.145 22.147v227.706c-0.013 12.226-9.919 22.134-22.145 22.145h-57.23zM540.054 254.524h-56.107c-6.626 0-11.999 5.373-11.999 11.999s5.373 12.001 11.999 12.001h56.107c6.626 0 12.001-5.373 12.001-12.001s-5.375-11.999-12.001-11.999zM731.652 564.34h-439.305c-6.626 0-11.999 5.372-11.999 12v285.103c0 6.627 5.373 11.999 11.999 11.999h439.305c6.627 0 11.999-5.373 11.999-11.999v-285.103c0-6.626-5.372-12-11.999-12zM304.348 588.339h415.306v261.105h-415.306v-261.105zM691.68 604.314h-359.361c-6.627 0-11.999 5.372-11.999 12v205.157c0 6.626 5.372 11.999 11.999 11.999h359.361c6.628 0 12-5.373 12-11.999v-205.157c-0.001-6.628-5.374-12-12-12zM344.32 628.313h335.361v181.157h-335.361v-181.157zM375.332 648.296c-6.627 0-12.001 5.372-12.001 11.999 0 3.183 1.265 6.235 3.514 8.486l61.71 61.711c4.686 4.686 12.285 4.686 16.971 0l37.449-37.447c4.686-4.686 4.686-12.285 0-16.971s-12.285-4.686-16.971 0l-28.963 28.961-53.225-53.225c-2.247-2.254-5.301-3.518-8.484-3.514zM648.664 648.911c-3.184-0.004-6.238 1.261-8.485 3.514-14.602 14.602-29.204 29.212-43.807 43.828-16.443 16.422-32.873 32.853-49.291 49.292l-7.697 7.692c-2.425 2.423-4.85 4.847-7.274 7.269l-66.785-66.784c-4.686-4.686-12.285-4.686-16.971 0s-4.686 12.284 0 16.97l75.275 75.275c2.25 2.25 5.303 3.514 8.486 3.514h0.008c3.187-0.002 6.239-1.272 8.49-3.527 5.238-5.252 10.482-10.5 15.737-15.743l7.71-7.704c16.412-16.433 32.841-32.862 49.287-49.287 14.588-14.609 29.19-29.219 43.807-43.828 4.686-4.686 4.686-12.284 0-16.971-2.256-2.248-5.306-3.512-8.489-3.512zM604.865 692.733c-3.181 0-6.232 1.262-8.482 3.51-16.457 16.434-32.891 32.868-49.305 49.304-3.416 3.42-4.447 8.558-2.613 13.030 10.426 25.442 39.503 37.615 64.946 27.189s37.615-39.503 27.189-64.946c-5.057-12.338-14.851-22.134-27.189-27.189-1.442-0.594-2.986-0.898-4.547-0.898zM570.548 756.009c12.088-12.1 24.187-24.198 36.299-36.299 11.033 9.015 12.667 25.266 3.652 36.299-9.015 11.032-25.266 12.666-36.299 3.651-1.335-1.091-2.56-2.314-3.652-3.651zM949.238 22.559c-14.501-0.017-27.141 9.857-30.634 23.931l-7.455 29.895c-1.604 6.431 2.309 12.943 8.74 14.547 0.95 0.237 1.925 0.356 2.904 0.356h52.889c6.626 0 12.001-5.373 12.001-11.999 0-0.979-0.12-1.955-0.356-2.904l-7.456-29.895c-3.492-14.074-16.133-23.95-30.633-23.931zM938.153 67.287l3.739-14.989c1.012-4.056 5.12-6.526 9.178-5.514 2.716 0.678 4.836 2.799 5.514 5.514l3.738 14.991-22.169-0.002zM74.762 22.559c-14.5-0.017-27.141 9.857-30.634 23.931l-7.455 29.895c-1.603 6.431 2.309 12.943 8.74 14.547 0.95 0.237 1.925 0.356 2.904 0.356h52.888c6.627 0 12.001-5.373 12.001-11.999 0-0.979-0.119-1.955-0.356-2.904l-7.455-29.895c-3.494-14.074-16.135-23.95-30.634-23.931zM63.678 67.287l3.738-14.989c1.012-4.056 5.12-6.526 9.178-5.514 2.716 0.678 4.836 2.799 5.514 5.514l3.738 14.991-22.168-0.002z" />
<glyph unicode="&#xe90b;" glyph-name="map-pin" d="M512 885.333c-93.356 0-182.889-37.085-248.902-103.098s-103.098-155.545-103.098-248.902c0-136.469 88.503-267.337 183.23-367.326 46.709-49.306 93.527-89.63 128.701-117.641 16.311-12.988 30.067-23.287 40.068-30.554 10.001 7.266 23.757 17.566 40.068 30.554 35.174 28.011 81.993 68.335 128.7 117.641 94.729 99.989 183.232 230.857 183.232 367.326 0 93.356-37.086 182.889-103.1 248.902-66.010 66.013-155.546 103.098-248.9 103.098zM512-21.333c-17.749-26.624-17.771-26.615-17.771-26.615l-0.107 0.073-1.203 0.815c-0.806 0.546-1.963 1.34-3.452 2.368-2.978 2.061-7.275 5.082-12.702 9.003-10.859 7.838-26.261 19.311-44.698 33.993-36.826 29.321-86.008 71.663-135.299 123.691-97.273 102.677-200.77 249.143-200.77 411.341 0 110.33 43.828 216.141 121.844 294.156s183.826 121.844 294.156 121.844c110.332 0 216.141-43.828 294.157-121.844s121.843-183.826 121.843-294.156c0-162.197-103.497-308.663-200.768-411.341-49.293-52.028-98.475-94.37-135.3-123.691-18.436-14.682-33.839-26.155-44.698-33.993-5.427-3.921-9.724-6.942-12.702-9.003-1.489-1.028-2.645-1.822-3.452-2.368l-1.203-0.815-0.081-0.051c0 0-0.047-0.030-17.796 26.594zM512-21.333l17.749-26.624c-10.748-7.168-24.768-7.155-35.52 0.009l17.771 26.615zM512 629.333c-53.018 0-96-42.981-96-96s42.982-96 96-96 96 42.982 96 96c0 53.019-42.982 96-96 96zM352 533.333c0 88.366 71.634 160 160 160s160-71.634 160-160c0-88.367-71.633-160-160-160s-160 71.633-160 160z" />
<glyph unicode="&#xe90c;" glyph-name="Right" d="M512-47.484c273.649 0 495.484 221.835 495.484 495.484s-221.835 495.484-495.484 495.484c-273.648 0-495.484-221.836-495.484-495.484s221.836-495.484 495.484-495.484zM640.264 452.311c0-6.95-2.53-13.897-7.584-19.195l-159.044-166.734c-10.114-10.607-26.518-10.607-36.633 0-10.111 10.603-10.111 27.797 0 38.403l140.731 147.525-140.724 147.529c-10.114 10.607-10.114 27.798 0 38.399 10.111 10.612 26.515 10.612 36.633 0l159.044-166.73c5.051-5.302 7.578-12.252 7.578-19.198z" />
<glyph unicode="&#xe90d;" glyph-name="shopping-cart-head" d="M388.129 86.71c-5.701 0-10.323-4.621-10.323-10.323s4.621-10.323 10.323-10.323c5.701 0 10.323 4.621 10.323 10.323s-4.621 10.323-10.323 10.323zM315.871 76.387c0 39.906 32.352 72.258 72.258 72.258s72.258-32.352 72.258-72.258c0-39.906-32.352-72.258-72.258-72.258s-72.258 32.352-72.258 72.258zM842.323 86.71c-5.701 0-10.323-4.621-10.323-10.323s4.621-10.323 10.323-10.323c5.701 0 10.323 4.621 10.323 10.323s-4.621 10.323-10.323 10.323zM770.065 76.387c0 39.906 32.352 72.258 72.258 72.258s72.258-32.352 72.258-72.258c0-39.906-32.352-72.258-72.258-72.258s-72.258 32.352-72.258 72.258zM26.839 902.194c0 17.103 13.865 30.968 30.968 30.968h165.161c14.76 0 27.469-10.417 30.365-24.89l36.34-181.561h676.521c9.229 0 17.979-4.117 23.863-11.228s8.288-16.475 6.557-25.542l-66.107-346.656c-5.193-26.142-19.413-49.621-40.171-66.329-20.678-16.645-46.529-25.517-73.057-25.085h-400.797c-26.532-0.433-52.383 8.44-73.059 25.085-20.749 16.701-34.965 40.167-40.163 66.289l-69.037 344.929c-0.241 0.959-0.437 1.936-0.586 2.929l-36.051 180.123h-139.778c-17.103 0-30.968 13.865-30.968 30.968zM302.069 664.774l61.93-309.426c2.362-11.878 8.826-22.551 18.26-30.149 9.437-7.594 21.243-11.634 33.353-11.396l0.595 0.003 401.937-0.003c12.11-0.238 23.915 3.802 33.356 11.396 9.404 7.574 15.859 18.207 18.237 30.049l0.020 0.099 59.009 309.426h-626.696z" />
<glyph unicode="&#xe90f;" glyph-name="Telegram" d="M426.844 343.844l0.003 0.020 237.404 214.239c10.419 9.247-2.276 13.757-16.108 5.368l-293.005-184.852-126.562 39.503c-27.332 8.369-27.528 27.149 6.136 40.653l493.185 190.17c22.523 10.225 44.265-5.412 35.666-39.887l-83.988-395.789c-5.865-28.124-22.861-34.852-46.405-21.86l-127.941 94.525-61.496-59.799c-0.195-0.187-0.387-0.376-0.579-0.563-6.879-6.694-12.567-12.237-25.021-12.237l8.712 130.509z" />
<glyph unicode="&#xe910;" glyph-name="Vector" d="M186.182 785.455c-32.133 0-58.182-26.049-58.182-58.182v-651.636c0-32.135 26.049-58.182 58.182-58.182h651.636c32.135 0 58.182 26.047 58.182 58.182v651.636c0 32.133-26.047 58.182-58.182 58.182h-651.636zM58.182 727.273c0 70.692 57.308 128 128 128h651.636c70.693 0 128-57.308 128-128v-651.636c0-70.693-57.307-128-128-128h-651.636c-70.692 0-128 57.307-128 128v651.636zM698.182 948.364c19.279 0 34.909-15.629 34.909-34.909v-186.182c0-19.28-15.63-34.909-34.909-34.909s-34.909 15.629-34.909 34.909v186.182c0 19.28 15.63 34.909 34.909 34.909zM325.818 948.364c19.28 0 34.909-15.629 34.909-34.909v-186.182c0-19.28-15.629-34.909-34.909-34.909s-34.909 15.629-34.909 34.909v186.182c0 19.28 15.629 34.909 34.909 34.909zM58.182 541.091c0 19.28 15.629 34.909 34.909 34.909h837.818c19.279 0 34.909-15.629 34.909-34.909s-15.63-34.909-34.909-34.909h-837.818c-19.28 0-34.909 15.629-34.909 34.909z" />
<glyph unicode="&#xe911;" glyph-name="wardrobe-1" d="M847.513-64h-671.027c-6.626 0-11.999 5.373-11.999 12.001v1000c0 6.627 5.373 11.999 11.999 11.999h671.027c6.626 0 12.001-5.373 12.001-11.999v-1000c-0.002-6.628-5.375-12.001-12.001-12.001zM188.487-39.999h647.025v975.999h-647.025v-975.999zM511.998 227.899c-6.626 0-12 3.842-12 8.579v714.942c0 4.738 5.372 8.579 12 8.579s11.999-3.842 11.999-8.579v-714.94c0.002-4.738-5.371-8.581-11.999-8.581zM511.998-64h-335.513c-6.626 0-11.999 5.373-11.999 12.001v145.95c0 6.626 5.373 11.999 11.999 11.999h335.513c6.626 0 11.999-5.373 11.999-11.999v-145.95c0.002-6.628-5.371-12.001-11.999-12.001zM188.487-39.999h311.512v121.949h-311.512v-121.949zM511.998 81.949h-335.513c-6.626 0-11.999 5.373-11.999 12.001v145.949c0 6.627 5.373 12.001 11.999 12.001h335.513c6.626 0 11.999-5.373 11.999-12.001v-145.949c0.002-6.628-5.371-12.001-11.999-12.001zM188.485 105.948h311.513v121.95h-311.511l-0.002-121.95zM361.131 154.925h-33.778c-6.627 0-11.999 5.373-11.999 11.999s5.372 12 11.999 12h33.778c6.626 0 11.999-5.372 11.999-12s-5.373-11.999-11.999-11.999zM441.279 567.258c-6.626 0-12 5.372-12 11.999v29.386c0 6.627 5.372 11.999 12 11.999s11.999-5.372 11.999-11.999v-29.386c0-6.627-5.373-11.999-11.999-11.999zM582.717 421.304c-6.626 0-11.998 5.373-11.998 12.001v29.386c0 6.627 5.372 12.001 11.998 12.001s12.001-5.373 12.001-12.001v-29.386c0-6.628-5.373-12.001-12.001-12.001zM361.131 8.975h-33.778c-6.627 0-11.999 5.372-11.999 11.998s5.372 12.001 11.999 12.001h33.778c6.626 0 11.999-5.373 11.999-12.001s-5.373-11.998-11.999-11.998z" />
<glyph unicode="&#xe912;" glyph-name="wardrobe-1-1" d="M957.902 529.157h-891.804c-6.627 0-11.999 5.372-11.999 11.998v260.835c0 6.626 5.373 11.999 11.999 11.999h891.804c6.626 0 12-5.373 12-11.999v-260.833c-0.002-6.628-5.374-12-12-12zM78.099 553.157h867.804v236.834h-867.804v-236.834zM957.902 268.323h-891.804c-6.627 0-11.999 5.372-11.999 12v260.833c0 6.627 5.373 12.001 11.999 12.001h891.804c6.626 0 12-5.373 12-12.001v-260.833c-0.002-6.628-5.374-12-12-12zM78.099 292.322h867.804v236.834h-867.804v-236.834zM957.902 7.49h-891.804c-6.627 0-11.999 5.372-11.999 12v260.832c0 6.626 5.373 12 11.999 12h891.804c6.626 0 12-5.372 12-12v-260.833c-0.002-6.627-5.374-11.999-12-11.999zM78.099 31.489h867.804v236.834h-867.804v-236.834zM534.445 659.573h-44.89c-6.627 0-12.001 5.372-12.001 11.999 0 6.626 5.373 12 12.001 12h44.89c6.626 0 12-5.372 12-12s-5.374-11.999-12-11.999zM534.445 398.738h-44.89c-6.627 0-12.001 5.372-12.001 12s5.373 12.001 12.001 12.001h44.89c6.626 0 12-5.373 12-12.001s-5.374-12-12-12zM534.445 137.905h-44.89c-6.627 0-12.001 5.372-12.001 12s5.373 11.999 12.001 11.999h44.89c6.626 0 12-5.372 12-11.999 0-6.626-5.374-12-12-12zM992 789.988h-960c-17.664 0.022-31.979 14.336-32 32v34.524c0.021 17.664 14.336 31.979 32 32h960c17.664-0.021 31.98-14.336 32-32v-34.524c-0.020-17.664-14.336-31.978-32-32zM32 864.512c-4.416-0.005-7.995-3.584-8-8v-34.524c0.005-4.415 3.584-7.994 8-7.999h960c4.415 0.005 7.994 3.584 7.999 7.999v34.524c-0.005 4.416-3.584 7.995-7.999 8h-960z" />
<glyph unicode="&#xe913;" glyph-name="arrow-up" horiz-adv-x="896" d="M69.8 381l-44.4 44.4c-18.8 18.8-18.8 49.2 0 67.8l388.6 388.8c18.8 18.8 49.2 18.8 67.8 0l388.6-388.6c18.8-18.8 18.8-49.2 0-67.8l-44.4-44.4c-19-19-50-18.6-68.6 0.8l-229.4 240.8v-574.8c0-26.6-21.4-48-48-48h-64c-26.6 0-48 21.4-48 48v574.8l-229.6-241c-18.6-19.6-49.6-20-68.6-0.8z" />
<glyph unicode="&#xe914;" glyph-name="smartfone" horiz-adv-x="640" d="M0 192v-160c0-53.019 42.981-96 96-96v0h448c53.019 0 96 42.981 96 96v0 160zM320 0c-35.346 0-64 28.654-64 64s28.654 64 64 64c35.346 0 64-28.654 64-64v0c0-35.346-28.654-64-64-64v0zM0 192v672c0 53.019 42.981 96 96 96v0h448c53.019 0 96-42.981 96-96v0-672z" />
</font>
</defs>
</svg>
